<svg width="28" height="28" viewBox="0 0 28 28" fill="none" xmlns="http://www.w3.org/2000/svg">
<path d="M2.95001 21.8C2.95001 19.9615 2.95001 19.0423 3.52115 18.4712C4.0923 17.9 5.01153 17.9 6.85001 17.9H7.50001C8.72566 17.9 9.33849 17.9 9.71925 18.2808C10.1 18.6615 10.1 19.2744 10.1 20.5V27H2.95001V21.8Z" stroke="#8C8C8C" stroke-width="2" stroke-linecap="round" stroke-linejoin="round"/>
<path d="M17.9 23.1C17.9 21.8743 17.9 21.2615 18.2808 20.8808C18.6615 20.5 19.2744 20.5 20.5 20.5H21.15C22.9885 20.5 23.9077 20.5 24.4789 21.0711C25.05 21.6423 25.05 22.5615 25.05 24.4V27H17.9V23.1Z" stroke="#8C8C8C" stroke-width="2" stroke-linecap="round" stroke-linejoin="round"/>
<path d="M1 27H27" stroke="#8C8C8C" stroke-width="2" stroke-linecap="round" stroke-linejoin="round"/>
<path d="M10.1 19.2C10.1 17.3615 10.1 16.4423 10.6711 15.8711C11.2423 15.3 12.1615 15.3 14 15.3C15.8385 15.3 16.7577 15.3 17.3288 15.8711C17.9 16.4423 17.9 17.3615 17.9 19.2V27H10.1V19.2Z" stroke="#8C8C8C" stroke-width="2" stroke-linecap="round" stroke-linejoin="round"/>
<path d="M14.8984 1.75097L15.8135 3.5963C15.9382 3.85317 16.271 4.09956 16.5518 4.14675L18.2104 4.42459C19.2711 4.60283 19.5206 5.37871 18.7563 6.1441L17.4669 7.44421C17.2485 7.66439 17.1289 8.08903 17.1965 8.39308L17.5657 10.0025C17.8568 11.2764 17.1861 11.7692 16.0682 11.1034L14.5136 10.1755C14.2328 10.0077 13.7701 10.0077 13.4841 10.1755L11.9295 11.1034C10.8168 11.7692 10.1409 11.2712 10.4321 10.0025L10.8012 8.39308C10.8688 8.08903 10.7492 7.66439 10.5308 7.44421L9.24138 6.1441C8.48227 5.37871 8.72664 4.60283 9.78732 4.42459L11.4459 4.14675C11.7215 4.09956 12.0543 3.85317 12.1791 3.5963L13.0942 1.75097C13.5933 0.749676 14.4044 0.749676 14.8984 1.75097Z" stroke="#8C8C8C" stroke-width="2" stroke-linecap="round" stroke-linejoin="round"/>
</svg>
