<svg width="28" height="29" viewBox="0 0 28 29" fill="none" xmlns="http://www.w3.org/2000/svg">
<path d="M18.6886 21.7222V23.1667C18.6886 25.5599 16.5899 27.5 14.001 27.5C11.4122 27.5 9.31346 25.5599 9.31346 23.1667V21.7222M18.6886 21.7222H9.31346M18.6886 21.7222H24.2989C24.8966 21.7222 25.1969 21.7222 25.4389 21.6468C25.9012 21.5026 26.2629 21.167 26.4189 20.7397C26.5008 20.5151 26.5008 20.2366 26.5008 19.6797C26.5008 19.436 26.5005 19.3142 26.4799 19.198C26.4409 18.9784 26.3487 18.7703 26.2084 18.5895C26.1342 18.494 26.0399 18.4069 25.8541 18.2351L25.2454 17.6724C25.0491 17.4909 24.9387 17.2446 24.9387 16.9879V11.6111C24.9387 6.02689 20.0418 1.49999 14.001 1.5C7.96033 1.50001 3.06335 6.02691 3.06335 11.6111V16.988C3.06335 17.2447 2.95279 17.4909 2.75642 17.6724L2.14781 18.235C1.96139 18.4074 1.86808 18.4939 1.7938 18.5896C1.65341 18.7703 1.56043 18.9784 1.52145 19.198C1.50082 19.3142 1.50082 19.436 1.50082 19.6797C1.50082 20.2366 1.50082 20.515 1.58278 20.7396C1.73872 21.167 2.10208 21.5026 2.56438 21.6468C2.80641 21.7222 3.10556 21.7222 3.70329 21.7222H9.31346" stroke="white" stroke-width="3" stroke-linecap="round" stroke-linejoin="round"/>
</svg>
