<svg width="28" height="28" viewBox="0 0 28 28" fill="none" xmlns="http://www.w3.org/2000/svg">
<path d="M13.9999 20.5C11.8242 20.5 9.93054 22.1446 8.95288 24.5705C8.48593 25.7293 9.15598 27 10.0463 27H17.9535C18.8439 27 19.5139 25.7293 19.047 24.5705C18.0693 22.1446 16.1757 20.5 13.9999 20.5Z" stroke="#8C8C8C" stroke-width="2" stroke-linecap="round"/>
<path d="M22.4498 4.90002H24.0127C25.5738 4.90002 26.3544 4.90002 26.7616 5.3906C27.1688 5.88117 26.9995 6.6175 26.6609 8.09016L26.1529 10.299C25.3889 13.6212 22.594 16.0915 19.1998 16.6" stroke="#8C8C8C" stroke-width="2" stroke-linecap="round" stroke-linejoin="round"/>
<path d="M5.54993 4.90002H3.98705C2.42593 4.90002 1.64537 4.90002 1.23814 5.3906C0.830915 5.88117 1.00024 6.6175 1.3389 8.09016L1.84685 10.299C2.61081 13.6212 5.40578 16.0915 8.79993 16.6" stroke="#8C8C8C" stroke-width="2" stroke-linecap="round" stroke-linejoin="round"/>
<path d="M13.9999 20.5C17.9269 20.5 21.2344 14.4393 22.2286 6.18816C22.5035 3.90626 22.641 2.76531 21.9128 1.88265C21.1846 1 20.0089 1 17.6574 1H10.3425C7.991 1 6.81526 1 6.08705 1.88265C5.35883 2.76531 5.49631 3.90626 5.77125 6.18815C6.76543 14.4393 10.0729 20.5 13.9999 20.5Z" stroke="#8C8C8C" stroke-width="2" stroke-linecap="round"/>
</svg>
