<svg width="30" height="30" viewBox="0 0 30 30" fill="none" xmlns="http://www.w3.org/2000/svg">
<path d="M3.75 11.25V24.25C3.75 24.9501 3.75 25.2999 3.88624 25.5672C4.00608 25.8024 4.19717 25.9941 4.43237 26.1139C4.6995 26.25 5.04937 26.25 5.74807 26.25H18.7501M21.25 10L16.25 15L13.75 12.5M8.75 17.2502V7.75024C8.75 6.35011 8.75 5.64953 9.02248 5.11475C9.26217 4.64434 9.64434 4.26217 10.1147 4.02248C10.6495 3.75 11.3501 3.75 12.7502 3.75H22.2502C23.6504 3.75 24.3501 3.75 24.8849 4.02248C25.3553 4.26217 25.7381 4.64434 25.9778 5.11475C26.2503 5.64952 26.2503 6.34961 26.2503 7.74972L26.2503 17.2498C26.2503 18.6499 26.2503 19.35 25.9778 19.8847C25.7381 20.3551 25.3553 20.7381 24.8849 20.9778C24.3506 21.25 23.6519 21.25 22.2545 21.25H12.7461C11.3487 21.25 10.649 21.25 10.1147 20.9778C9.64434 20.7381 9.26217 20.3553 9.02248 19.8849C8.75 19.3501 8.75 18.6504 8.75 17.2502Z" stroke="#8C8C8C" stroke-width="2" stroke-linecap="round" stroke-linejoin="round"/>
</svg>
